<?xml version="1.0" standalone="no"?>
<!DOCTYPE svg PUBLIC "-//W3C//DTD SVG 20010904//EN"
 "http://www.w3.org/TR/2001/REC-SVG-20010904/DTD/svg10.dtd">
<svg version="1.0" xmlns="http://www.w3.org/2000/svg"
 width="1016.000000pt" height="512.000000pt" viewBox="0 0 1016.000000 512.000000"
 preserveAspectRatio="xMidYMid meet">

<g transform="translate(0.000000,512.000000) scale(0.100000,-0.100000)"
fill="#000000" stroke="none">
<path d="M3290 4850 c-19 -19 -20 -34 -20 -497 l-1 -478 -237 -242 c-277 -282
-224 -256 -522 -251 -158 2 -199 6 -217 19 -13 9 -129 126 -258 260 -166 172
-247 249 -276 262 -57 26 -103 16 -151 -33 -33 -33 -38 -44 -38 -84 0 -26 5
-57 11 -69 6 -12 153 -164 325 -338 l314 -316 0 -703 c0 -694 0 -703 21 -740
52 -93 180 -95 240 -4 18 27 19 54 19 407 0 242 4 385 10 398 14 25 56 25 70
0 6 -13 10 -155 10 -394 0 -372 0 -374 23 -408 60 -90 181 -88 237 4 19 31 20
56 20 732 l0 699 329 331 c302 303 329 333 336 371 12 76 -36 146 -110 162
l-40 8 -3 444 c-2 395 -4 446 -19 462 -21 24 -48 23 -73 -2z"/>
<path d="M3470 4525 l0 -294 58 -21 c49 -19 71 -21 162 -17 88 4 122 11 209
42 124 44 189 45 266 2 l45 -26 0 279 0 279 -26 20 c-57 44 -150 37 -326 -28
-121 -44 -232 -37 -332 24 l-56 34 0 -294z"/>
<path d="M2503 4079 c-53 -10 -75 -22 -125 -67 -77 -70 -107 -180 -74 -278 60
-182 299 -239 434 -103 57 57 77 104 77 189 0 89 -21 136 -85 194 -66 60 -143
82 -227 65z"/>
<path d="M6065 2828 c-3 -7 -4 -153 -3 -323 l3 -310 35 0 35 0 0 320 0 320
-33 3 c-20 2 -34 -2 -37 -10z"/>
<path d="M9307 2834 c-4 -4 -7 -61 -7 -127 l0 -119 -30 26 c-62 52 -152 46
-211 -13 -47 -47 -62 -101 -57 -210 6 -145 53 -206 160 -206 47 0 64 5 102 32
l45 32 3 -27 c2 -23 8 -27 33 -27 l30 0 0 320 0 320 -30 3 c-17 2 -34 0 -38
-4z m-84 -265 c12 -6 34 -23 50 -37 26 -24 27 -30 27 -118 l0 -92 -35 -31
c-84 -73 -162 -45 -185 66 -30 143 49 260 143 212z"/>
<path d="M5655 2783 c-36 -91 -205 -569 -205 -580 0 -10 10 -13 36 -11 36 3
37 5 64 78 l28 75 127 0 127 0 28 -75 c26 -71 29 -75 60 -78 18 -2 36 0 41 5
7 7 -184 557 -205 592 -4 6 -27 11 -51 11 -31 0 -45 -5 -50 -17z m99 -209 c24
-71 48 -137 51 -146 7 -16 -2 -18 -99 -18 -58 0 -106 1 -106 3 0 3 86 262 95
286 3 8 8 12 10 9 3 -2 25 -62 49 -134z"/>
<path d="M6362 2629 c-73 -36 -106 -107 -105 -224 1 -142 70 -225 185 -225 52
0 122 31 137 58 13 25 13 33 2 51 -7 11 -15 10 -41 -9 -19 -13 -53 -25 -79
-28 -40 -3 -52 0 -78 22 -53 45 -67 170 -27 248 32 62 99 75 173 33 23 -14 45
-25 48 -25 2 0 3 17 1 38 -3 33 -8 40 -48 60 -55 28 -113 28 -168 1z"/>
<path d="M6755 2635 c-22 -8 -48 -24 -57 -36 -20 -24 -21 -29 -9 -47 6 -10 18
-8 56 12 99 53 185 23 185 -64 l0 -40 -53 0 c-68 0 -142 -22 -173 -51 -62 -58
-48 -171 27 -209 21 -11 54 -20 74 -20 37 0 108 30 121 52 6 9 10 5 14 -12 5
-20 12 -25 35 -25 l30 0 3 165 c3 203 -7 241 -72 271 -49 22 -125 24 -181 4z
m175 -283 c0 -40 -5 -53 -29 -76 -18 -17 -44 -30 -69 -33 -34 -5 -44 -1 -66
20 -30 30 -33 62 -10 95 22 31 48 41 117 41 l57 1 0 -48z"/>
<path d="M7305 2636 c-16 -7 -39 -23 -49 -35 -26 -29 -36 -26 -36 10 0 28 -2
30 -32 27 l-33 -3 0 -220 0 -220 35 0 35 0 3 157 2 156 35 31 c62 54 122 54
152 -2 13 -25 18 -66 21 -189 l4 -158 35 0 35 0 -4 183 c-3 156 -6 187 -21
210 -39 60 -116 82 -182 53z"/>
<path d="M7732 2630 c-62 -32 -89 -78 -107 -182 -8 -50 12 -155 36 -195 11
-17 40 -41 65 -54 33 -16 50 -32 61 -57 20 -49 12 -62 -42 -62 -41 0 -45 -2
-45 -24 0 -59 149 -43 164 19 4 14 0 41 -9 61 -8 20 -15 38 -15 40 0 2 18 9
41 15 39 12 79 49 79 73 0 6 -4 17 -9 25 -7 11 -15 10 -41 -9 -19 -13 -53 -25
-79 -28 -40 -3 -52 0 -78 22 -53 45 -67 170 -27 248 32 62 99 75 173 33 23
-14 45 -25 48 -25 2 0 3 16 1 37 -4 49 -38 73 -114 79 -47 4 -67 1 -102 -16z"/>
<path d="M8125 2635 c-22 -8 -48 -24 -57 -36 -20 -24 -21 -29 -9 -47 6 -10 18
-8 56 12 99 53 185 23 185 -64 l0 -40 -53 0 c-68 0 -142 -22 -173 -51 -62 -58
-48 -171 27 -209 21 -11 54 -20 74 -20 37 0 108 30 121 52 6 9 10 5 14 -12 5
-20 12 -25 35 -25 l30 0 3 165 c3 203 -7 241 -72 271 -49 22 -125 24 -181 4z
m175 -283 c0 -40 -5 -53 -29 -76 -18 -17 -44 -30 -69 -33 -34 -5 -44 -1 -66
20 -30 30 -33 62 -10 95 22 31 48 41 117 41 l57 1 0 -48z"/>
<path d="M8675 2636 c-16 -7 -39 -23 -49 -35 -26 -29 -36 -26 -36 10 0 28 -2
30 -32 27 l-33 -3 0 -220 0 -220 35 0 35 0 3 157 2 156 35 31 c62 54 122 54
152 -2 13 -25 18 -66 21 -189 l4 -158 35 0 35 0 -4 183 c-3 156 -6 187 -21
210 -39 60 -116 82 -182 53z"/>
<path d="M9627 2636 c-87 -32 -130 -107 -130 -226 0 -118 38 -186 120 -216 76
-27 169 -13 224 34 109 91 98 327 -19 395 -43 25 -144 32 -195 13z m143 -61
c46 -24 65 -68 65 -155 0 -114 -43 -170 -131 -170 -48 0 -90 24 -111 63 -24
45 -23 160 0 209 31 61 113 86 177 53z"/>
<path d="M1915 1216 c-141 -207 -260 -376 -263 -376 -4 0 -100 93 -214 207
-114 114 -209 205 -212 203 -2 -3 -164 -225 -361 -495 l-356 -490 1025 -3
c564 -1 1487 -1 2051 0 l1025 3 -361 465 c-199 256 -367 471 -373 478 -10 10
-56 -28 -236 -198 -123 -115 -227 -207 -231 -203 -3 5 -116 172 -249 373 -133
201 -246 369 -250 373 -4 5 -28 -6 -52 -23 -89 -62 -216 -48 -283 32 l-25 30
-29 -31 c-85 -91 -221 -93 -312 -5 l-37 36 -257 -376z"/>
</g>
</svg>
