<?xml version="1.0" standalone="no"?>
<!DOCTYPE svg PUBLIC "-//W3C//DTD SVG 20010904//EN"
 "http://www.w3.org/TR/2001/REC-SVG-20010904/DTD/svg10.dtd">
<svg version="1.0" xmlns="http://www.w3.org/2000/svg"
 width="160.000000pt" height="160.000000pt" viewBox="0 0 160.000000 160.000000"
 preserveAspectRatio="xMidYMid meet">

<g transform="translate(0.000000,160.000000) scale(0.100000,-0.100000)"
fill="#000000" stroke="none">
<path d="M685 1477 c-6 -22 -13 -27 -39 -27 l-31 0 24 -19 c19 -14 22 -24 17
-45 -7 -30 0 -33 24 -11 15 14 20 13 43 -6 30 -23 31 -22 17 15 -8 21 -5 28
17 46 l26 20 -32 0 c-17 0 -31 4 -31 8 0 5 -6 17 -14 28 -14 18 -15 18 -21 -9z"/>
<path d="M488 1360 c-10 -11 -13 -22 -8 -25 5 -3 7 -11 4 -19 -3 -9 5 -13 25
-13 17 0 28 4 25 9 -3 5 0 15 6 23 10 12 9 15 -4 15 -9 0 -16 7 -16 15 0 20
-11 18 -32 -5z"/>
<path d="M637 1238 c-6 -22 -13 -28 -34 -28 l-27 0 22 -16 c16 -11 21 -22 17
-35 -7 -20 9 -27 20 -8 5 7 15 5 31 -6 24 -16 25 -15 18 11 -5 20 -2 31 11 41
18 12 17 13 -6 13 -18 0 -28 7 -35 28 l-10 27 -7 -27z"/>
<path d="M640 1086 c0 -2 27 -105 60 -228 l60 -225 -10 -234 c-14 -341 -15
-319 18 -319 l28 0 17 118 c9 64 22 146 29 182 13 77 11 82 63 -142 35 -150
38 -158 61 -158 23 0 24 1 18 73 -10 127 -31 502 -28 505 1 2 35 -40 75 -92
41 -52 79 -94 84 -92 26 7 9 46 -87 195 l-103 161 -75 0 -75 0 -49 130 c-39
101 -54 130 -68 130 -10 0 -18 -2 -18 -4z"/>
<path d="M812 964 c-34 -23 -27 -83 11 -104 24 -13 30 -13 55 0 37 21 44 81
10 104 -28 20 -48 20 -76 0z"/>
</g>
</svg>
